<svg id="Layer_1" data-name="Layer 1" xmlns="http://www.w3.org/2000/svg" xmlns:xlink="http://www.w3.org/1999/xlink" width="32.21" height="35.72" viewBox="0 0 32.21 35.72">
  <defs>
    <style>
      .cls-1 {
        fill: #083042;
      }

      .cls-2 {
        fill: #3ddb85;
      }

      .cls-3 {
        fill: #3ddc84;
      }

      .cls-4 {
        fill: #4285f4;
      }

      .cls-5 {
        fill: #d6f0ff;
      }

      .cls-6 {
        fill: #041619;
      }

      .cls-7 {
        fill: #37bf6e;
      }

      .cls-8 {
        fill: #3870b2;
      }

      .cls-9 {
        opacity: 0.1;
        isolation: isolate;
      }

      .cls-10 {
        fill: url(#linear-gradient);
      }

      .cls-11 {
        font-size: 5.32px;
        fill: #fff;
        font-family: MyriadPro-Regular, Myriad Pro;
      }
    </style>
    <linearGradient id="linear-gradient" x1="24.05" y1="26.23" x2="8.64" y2="11.35" gradientUnits="userSpaceOnUse">
      <stop offset="0" stop-color="#083042"/>
      <stop offset="1" stop-color="#4285f4"/>
    </linearGradient>
  </defs>
  <title>Untitled-1</title>
  <g>
    <path class="cls-1" d="M11.39,21.72a1.11,1.11,0,0,1-.13-.36,1.11,1.11,0,0,0,.13.36m.16.2a1,1,0,0,0,.21.16l5.32,3-5.32-3a.78.78,0,0,1-.21-.16Z" transform="translate(-1.69 -0.14)"/>
    <path class="cls-1" d="M17.9,28.81h0a2.31,2.31,0,0,1-1.13-.28L8.8,24.09A1.45,1.45,0,0,1,8,22.82v-9a2.47,2.47,0,0,1,.23-1.08L2.07,9.27a4.11,4.11,0,0,0-.38,1.79V26A2.43,2.43,0,0,0,3,28.06L16,35.38a3.71,3.71,0,0,0,1.86.48h0c0-.93,0-4.67,0-7Z" transform="translate(-1.69 -0.14)"/>
    <path class="cls-2" d="M24.12,14.36l-.05-.07L24,14.13l.11.16a.18.18,0,0,1,.05.07m-6.53-3.62h0" transform="translate(-1.69 -0.14)"/>
    <path class="cls-3" d="M8.27,12.71a2,2,0,0,1,.79-.86l7.46-4.36a2.28,2.28,0,0,1,2.26,0l7.54,4.23a2.51,2.51,0,0,1,.85.77l6.1-3.61a4.2,4.2,0,0,0-1.39-1.26L19.42.61a3.77,3.77,0,0,0-3.72,0L3.38,7.85A3.33,3.33,0,0,0,2.07,9.27l6.2,3.44Z" transform="translate(-1.69 -0.14)"/>
    <path class="cls-2" d="M17.28,10.81l0,0,0,0M11.4,14.45l0-.08a.35.35,0,0,1,0,.08l0,.07Z" transform="translate(-1.69 -0.14)"/>
    <path class="cls-4" d="M33.27,8.85l-6.1,3.61a2.16,2.16,0,0,1,.38,1.15v8.58a2.22,2.22,0,0,1-1.11,1.95L19,28.5a2.19,2.19,0,0,1-1.09.31c0,2.36,0,6.1,0,7h0a3.72,3.72,0,0,0,1.86-.51l12.32-7.2a3.69,3.69,0,0,0,1.83-3.21V10.76a3.46,3.46,0,0,0-.63-1.91" transform="translate(-1.69 -0.14)"/>
    <path class="cls-4" d="M24.26,21.28a.06.06,0,0,0,0,0s0,0,0,0m-.08-6.82a.6.6,0,0,0-.06-.11s.05.08.06.11ZM18.59,25l5-2.92.09-.06-.09.06-5,2.92Zm5.61-3.59-.06.12a.67.67,0,0,1,.06-.12" transform="translate(-1.69 -0.14)"/>
    <path class="cls-5" d="M11.38,14.52a1.53,1.53,0,0,0-.11.47,1.15,1.15,0,0,0,0,.19v6.05a.57.57,0,0,0,0,.13.75.75,0,0,0,.13.36,1.73,1.73,0,0,0,.15.2,1,1,0,0,0,.21.16l5.32,3a1.42,1.42,0,0,0,.75.19h.06a1.42,1.42,0,0,0,.7-.2l5-2.93.09-.05a.93.93,0,0,0,.15-.13,1.31,1.31,0,0,0,.2-.21,1.63,1.63,0,0,0,.11-.17.39.39,0,0,0,.06-.11s0-.09.05-.13l0,0a1.47,1.47,0,0,0,.07-.46V15a1.54,1.54,0,0,0,0-.3l-.06-.2,0-.09a.6.6,0,0,0-.06-.11l-.05-.07L24,14.12a1.43,1.43,0,0,0-.45-.36l-5.05-2.84a1.39,1.39,0,0,0-.28-.12,1.59,1.59,0,0,0-.39-.07h-.21a1.17,1.17,0,0,0-.26,0l-.05,0a1.56,1.56,0,0,0-.33.14l-5,2.93a1.35,1.35,0,0,0-.38.33,1.63,1.63,0,0,0-.11.17s0,.05,0,.08l0,.07Z" transform="translate(-1.69 -0.14)"/>
    <path class="cls-1" d="M17.89,25.24h-.06a1.42,1.42,0,0,1-.75-.19l-5.32-3a1.46,1.46,0,0,1-.21-.16.62.62,0,0,1-.15-.2,1.13,1.13,0,0,1-.14-.36V15a1.91,1.91,0,0,1,.12-.47L10,13.65l-1.68-.94A2.47,2.47,0,0,0,8,13.79v9a1.51,1.51,0,0,0,.76,1.28l7.92,4.44a2.26,2.26,0,0,0,1.13.28h0c0-1.15,0-2,0-2l0-1.6Z" transform="translate(-1.69 -0.14)"/>
    <path class="cls-6" d="M17.89,25.24h-.06a1.42,1.42,0,0,1-.75-.19l-5.32-3a1.46,1.46,0,0,1-.21-.16.62.62,0,0,1-.15-.2,1.13,1.13,0,0,1-.14-.36V15a1.91,1.91,0,0,1,.12-.47L10,13.65l-1.68-.94A2.47,2.47,0,0,0,8,13.79v9a1.51,1.51,0,0,0,.76,1.28l7.92,4.44a2.26,2.26,0,0,0,1.13.28h0c0-1.15,0-2,0-2l0-1.6Z" transform="translate(-1.69 -0.14)"/>
    <path class="cls-2" d="M26.32,11.69,18.77,7.46a2.26,2.26,0,0,0-2.25,0L9.05,11.85a2,2,0,0,0-.79.86l1.69.94,1.43.87,0-.07,0-.08a1.63,1.63,0,0,1,.11-.17,1.46,1.46,0,0,1,.37-.33l5-2.93a1.64,1.64,0,0,1,.33-.14l.05,0a1.09,1.09,0,0,1,.26,0h.21a1.59,1.59,0,0,1,.39.07,1.39,1.39,0,0,1,.28.12l5.05,2.84a1.43,1.43,0,0,1,.45.36l.12.15.05.07,1.29-.85,1.75-1.05a2.56,2.56,0,0,0-.85-.75Z" transform="translate(-1.69 -0.14)"/>
    <path class="cls-7" d="M26.32,11.69,18.77,7.46a2.26,2.26,0,0,0-2.25,0L9.05,11.85a2,2,0,0,0-.79.86l1.69.94,1.43.87,0-.07,0-.08a1.63,1.63,0,0,1,.11-.17,1.46,1.46,0,0,1,.37-.33l5-2.93a1.64,1.64,0,0,1,.33-.14l.05,0a1.09,1.09,0,0,1,.26,0h.21a1.59,1.59,0,0,1,.39.07,1.39,1.39,0,0,1,.28.12l5.05,2.84a1.43,1.43,0,0,1,.45.36l.12.15.05.07,1.29-.85,1.75-1.05a2.56,2.56,0,0,0-.85-.75Z" transform="translate(-1.69 -0.14)"/>
    <path class="cls-4" d="M24.12,14.36l.06.11.05.09a1.44,1.44,0,0,1,.1.5v5.75a1.49,1.49,0,0,1-.07.47s0,0,0,0a.5.5,0,0,1,0,.13.61.61,0,0,0-.05.12l-.11.16a1.45,1.45,0,0,1-.21.22l-.15.12-.09.06-5,2.92a1.68,1.68,0,0,1-.7.21v1.6s0,.82,0,2A2.29,2.29,0,0,0,19,28.52l7.46-4.36a2.22,2.22,0,0,0,1.11-1.95V13.62a2.16,2.16,0,0,0-.38-1.15l-1.75,1Z" transform="translate(-1.69 -0.14)"/>
    <path class="cls-8" d="M24.12,14.36l.06.11.05.09a1.44,1.44,0,0,1,.1.5v5.75a1.49,1.49,0,0,1-.07.47s0,0,0,0a.5.5,0,0,1,0,.13.61.61,0,0,0-.05.12l-.11.16a1.45,1.45,0,0,1-.21.22l-.15.12-.09.06-5,2.92a1.68,1.68,0,0,1-.7.21v1.6s0,.82,0,2A2.29,2.29,0,0,0,19,28.52l7.46-4.36a2.22,2.22,0,0,0,1.11-1.95V13.62a2.16,2.16,0,0,0-.38-1.15l-1.75,1Z" transform="translate(-1.69 -0.14)"/>
    <path class="cls-5" d="M17.28,10.81A1.22,1.22,0,0,0,17,11l-5,2.93,5-2.93a1.43,1.43,0,0,1,.34-.14Z" transform="translate(-1.69 -0.14)"/>
    <path class="cls-9" d="M17.28,10.81A1.22,1.22,0,0,0,17,11l-5,2.93,5-2.93a1.43,1.43,0,0,1,.34-.14Z" transform="translate(-1.69 -0.14)"/>
    <path class="cls-5" d="M24,14.13a1.63,1.63,0,0,0-.46-.36l-5.05-2.83,5.05,2.83a1.63,1.63,0,0,1,.46.36" transform="translate(-1.69 -0.14)"/>
    <path class="cls-9" d="M24,14.13a1.63,1.63,0,0,0-.46-.36l-5.05-2.83,5.05,2.83a1.63,1.63,0,0,1,.46.36" transform="translate(-1.69 -0.14)"/>
    <path class="cls-5" d="M24.23,14.55l.06.19c0-.06,0-.12-.06-.19Z" transform="translate(-1.69 -0.14)"/>
    <path class="cls-9" d="M24.23,14.55l.06.19c0-.06,0-.12-.06-.19Z" transform="translate(-1.69 -0.14)"/>
    <path class="cls-5" d="M24.26,21.28a1.49,1.49,0,0,0,.07-.47v0a1.49,1.49,0,0,1-.07.47Z" transform="translate(-1.69 -0.14)"/>
    <path class="cls-9" d="M24.26,21.28a1.49,1.49,0,0,0,.07-.47v0a1.49,1.49,0,0,1-.07.47Z" transform="translate(-1.69 -0.14)"/>
  </g>
  <polygon class="cls-10" points="22.87 27.02 16.27 23.51 9.63 26.96 10.93 19.59 5.6 14.35 13 13.31 16.34 6.61 19.63 13.34 27.02 14.45 21.64 19.64 22.87 27.02"/>
  <text class="cls-11" transform="translate(10.25 18.68)">Wrap</text>
</svg>
